<svg width="32" height="32" viewBox="0 0 32 32" fill="none" xmlns="http://www.w3.org/2000/svg">
<mask id="path-1-inside-1_4_22" fill="white">
<path d="M31.2197 17.9865C31.2197 18.8581 30.8735 19.6939 30.2572 20.3102L20.2692 30.2983C19.6529 30.9146 18.817 31.2608 17.9454 31.2608L3.28626 31.2608C1.47131 31.2608 0 29.7895 0 27.9745L0 3.32734C0 1.51239 1.47131 0.0410767 3.28626 0.0410767L27.9335 0.0410767C29.7484 0.0410767 31.2197 1.51239 31.2197 3.32734L31.2197 17.9865Z"/>
</mask>
<path d="M31.2197 17.9865C31.2197 18.8581 30.8735 19.6939 30.2572 20.3102L20.2692 30.2983C19.6529 30.9146 18.817 31.2608 17.9454 31.2608L3.28626 31.2608C1.47131 31.2608 0 29.7895 0 27.9745L0 3.32734C0 1.51239 1.47131 0.0410767 3.28626 0.0410767L27.9335 0.0410767C29.7484 0.0410767 31.2197 1.51239 31.2197 3.32734L31.2197 17.9865Z" fill="white"/>
<path d="M30.2572 20.3102L29.6763 19.7293L19.6882 29.7173L20.2692 30.2983L20.8501 30.8792L30.8381 20.8912L30.2572 20.3102ZM17.9454 31.2608V30.4392L3.28626 30.4392L3.28626 31.2608V32.0824H17.9454V31.2608ZM0 27.9745H0.821566L0.821566 3.32734H0H-0.821566L-0.821566 27.9745H0ZM3.28626 0.0410767V0.862643L27.9335 0.862643V0.0410767V-0.780489L3.28626 -0.780489V0.0410767ZM31.2197 3.32734L30.3982 3.32734L30.3982 17.9865H31.2197H32.0413V3.32734H31.2197ZM27.9335 0.0410767V0.862643C29.2947 0.862643 30.3982 1.96613 30.3982 3.32734L31.2197 3.32734H32.0413C32.0413 1.05865 30.2022 -0.780489 27.9335 -0.780489V0.0410767ZM0 3.32734H0.821566C0.821566 1.96613 1.92505 0.862643 3.28626 0.862643V0.0410767V-0.780489C1.01757 -0.780489 -0.821566 1.05865 -0.821566 3.32734H0ZM3.28626 31.2608L3.28626 30.4392C1.92505 30.4392 0.821566 29.3358 0.821566 27.9745H0H-0.821566C-0.821566 30.2432 1.01757 32.0824 3.28626 32.0824V31.2608ZM20.2692 30.2983L19.6882 29.7173C19.226 30.1796 18.5991 30.4392 17.9454 30.4392V31.2608V32.0824C19.0349 32.0824 20.0797 31.6496 20.8501 30.8792L20.2692 30.2983ZM30.2572 20.3102L30.8381 20.8912C31.6085 20.1208 32.0413 19.076 32.0413 17.9865H31.2197H30.3982C30.3982 18.6402 30.1385 19.2671 29.6763 19.7293L30.2572 20.3102Z" fill="black" mask="url(#path-1-inside-1_4_22)"/>
<mask id="path-3-outside-2_4_22" maskUnits="userSpaceOnUse" x="7.00002" y="6" width="14" height="20" fill="black">
<rect fill="white" x="7.00002" y="6" width="14" height="20"/>
<path d="M18.5744 6.95901C19.2723 6.95901 19.7806 7.13133 20.0994 7.47595C20.4268 7.81195 20.5905 8.53997 20.5905 9.65999C20.5905 10.2889 20.4483 10.6034 20.164 10.6034C20.1295 10.6034 19.8538 10.4009 19.3369 9.996C18.82 9.58245 18.3806 9.30245 18.0187 9.15598C17.1227 8.80274 16.0113 8.62613 14.6845 8.62613C13.8488 8.62613 13.2629 8.89752 12.9269 9.4403C12.5909 9.98308 12.4229 11.06 12.4229 12.6711C12.4229 13.5758 12.5866 14.1918 12.914 14.5192C13.2414 14.8466 13.7282 15.0103 14.3743 15.0103C15.0291 15.0103 15.6538 14.8293 16.2482 14.4675C16.8513 14.1056 17.1701 13.9247 17.2046 13.9247C17.5233 13.9247 17.7473 14.0712 17.8766 14.3641C18.0144 14.657 18.0833 15.1309 18.0833 15.7857C18.0833 17.2331 17.7215 17.9568 16.9978 17.9568C16.8772 17.9568 16.5627 17.8275 16.0544 17.5691C15.5547 17.302 15.1885 17.1685 14.9559 17.1685C14.1288 17.1685 13.5042 17.3322 13.082 17.6595C12.6685 17.9783 12.4617 18.6288 12.4617 19.611C12.4617 20.5931 12.5478 21.4461 12.7202 22.1698C12.8925 22.8935 13.0303 23.3501 13.1337 23.5397C13.2371 23.7292 13.3577 23.9274 13.4956 24.1341C13.642 24.3409 13.7153 24.4874 13.7153 24.5735C13.7153 24.8923 13.1337 25.0517 11.9706 25.0517H11.5183L11.066 25.0388C8.71392 25.0388 7.53789 24.8018 7.53789 24.328C7.53789 24.0868 7.76621 23.8197 8.22283 23.5267C8.68807 23.2338 8.97238 22.9236 9.07577 22.5963C9.17916 22.2689 9.23085 21.4762 9.23085 20.2184V17.6337L9.26962 16.2509L9.28254 14.8552V13.4465C9.28254 11.4477 9.205 10.1812 9.04992 9.64707C8.89484 9.10429 8.68376 8.73813 8.41668 8.54859C7.7619 8.07473 7.43451 7.79472 7.43451 7.70857C7.43451 7.41564 7.61113 7.2261 7.96436 7.13994C8.18837 7.08825 8.91638 7.0624 10.1484 7.0624L13.3922 6.99778L14.8008 6.95901H18.5744Z"/>
</mask>
<path d="M18.5744 6.95901C19.2723 6.95901 19.7806 7.13133 20.0994 7.47595C20.4268 7.81195 20.5905 8.53997 20.5905 9.65999C20.5905 10.2889 20.4483 10.6034 20.164 10.6034C20.1295 10.6034 19.8538 10.4009 19.3369 9.996C18.82 9.58245 18.3806 9.30245 18.0187 9.15598C17.1227 8.80274 16.0113 8.62613 14.6845 8.62613C13.8488 8.62613 13.2629 8.89752 12.9269 9.4403C12.5909 9.98308 12.4229 11.06 12.4229 12.6711C12.4229 13.5758 12.5866 14.1918 12.914 14.5192C13.2414 14.8466 13.7282 15.0103 14.3743 15.0103C15.0291 15.0103 15.6538 14.8293 16.2482 14.4675C16.8513 14.1056 17.1701 13.9247 17.2046 13.9247C17.5233 13.9247 17.7473 14.0712 17.8766 14.3641C18.0144 14.657 18.0833 15.1309 18.0833 15.7857C18.0833 17.2331 17.7215 17.9568 16.9978 17.9568C16.8772 17.9568 16.5627 17.8275 16.0544 17.5691C15.5547 17.302 15.1885 17.1685 14.9559 17.1685C14.1288 17.1685 13.5042 17.3322 13.082 17.6595C12.6685 17.9783 12.4617 18.6288 12.4617 19.611C12.4617 20.5931 12.5478 21.4461 12.7202 22.1698C12.8925 22.8935 13.0303 23.3501 13.1337 23.5397C13.2371 23.7292 13.3577 23.9274 13.4956 24.1341C13.642 24.3409 13.7153 24.4874 13.7153 24.5735C13.7153 24.8923 13.1337 25.0517 11.9706 25.0517H11.5183L11.066 25.0388C8.71392 25.0388 7.53789 24.8018 7.53789 24.328C7.53789 24.0868 7.76621 23.8197 8.22283 23.5267C8.68807 23.2338 8.97238 22.9236 9.07577 22.5963C9.17916 22.2689 9.23085 21.4762 9.23085 20.2184V17.6337L9.26962 16.2509L9.28254 14.8552V13.4465C9.28254 11.4477 9.205 10.1812 9.04992 9.64707C8.89484 9.10429 8.68376 8.73813 8.41668 8.54859C7.7619 8.07473 7.43451 7.79472 7.43451 7.70857C7.43451 7.41564 7.61113 7.2261 7.96436 7.13994C8.18837 7.08825 8.91638 7.0624 10.1484 7.0624L13.3922 6.99778L14.8008 6.95901H18.5744Z" fill="#0D0D0D"/>
<path d="M20.0994 7.47595L19.8424 7.71369L19.8487 7.7202L20.0994 7.47595ZM19.3369 9.996L19.1182 10.2693L19.1211 10.2715L19.3369 9.996ZM18.0187 9.15598L18.15 8.83154L18.1471 8.83037L18.0187 9.15598ZM12.914 14.5192L12.6665 14.7667L12.914 14.5192ZM16.2482 14.4675L16.0681 14.1673L16.0662 14.1685L16.2482 14.4675ZM17.8766 14.3641L17.5563 14.5054L17.5599 14.5131L17.8766 14.3641ZM16.0544 17.5691L15.8894 17.8778L15.8957 17.8811L16.0544 17.5691ZM13.082 17.6595L13.2957 17.9367L13.2965 17.9361L13.082 17.6595ZM12.7202 22.1698L12.3797 22.2509L12.7202 22.1698ZM13.4956 24.1341L13.2042 24.3284L13.2099 24.3364L13.4956 24.1341ZM11.5183 25.0517L11.5083 25.4017H11.5183V25.0517ZM11.066 25.0388L11.076 24.6888H11.066V25.0388ZM8.22283 23.5267L8.03634 23.2305L8.03385 23.2321L8.22283 23.5267ZM9.23085 17.6337L8.88085 17.6239V17.6337H9.23085ZM9.26962 16.2509L9.61954 16.2607L9.61961 16.2541L9.26962 16.2509ZM9.28254 14.8552L9.63254 14.8584V14.8552H9.28254ZM9.04992 9.64707L8.71339 9.74322L8.7138 9.74465L9.04992 9.64707ZM8.41668 8.54859L8.21148 8.83214L8.21412 8.83401L8.41668 8.54859ZM7.96436 7.13994L7.88566 6.79888L7.88143 6.79991L7.96436 7.13994ZM10.1484 7.0624V7.41247L10.1554 7.41233L10.1484 7.0624ZM13.3922 6.99778L13.3991 7.34772L13.4018 7.34765L13.3922 6.99778ZM14.8008 6.95901V6.60888L14.7912 6.60915L14.8008 6.95901ZM18.5744 6.95901V7.30901C19.2224 7.30901 19.6165 7.46937 19.8424 7.71361L20.0994 7.47595L20.3563 7.23828C19.9447 6.79329 19.3222 6.60901 18.5744 6.60901V6.95901ZM20.0994 7.47595L19.8487 7.7202C19.9479 7.82204 20.0509 8.01597 20.1262 8.35075C20.2003 8.68039 20.2405 9.11432 20.2405 9.65999H20.5905H20.9405C20.9405 9.08564 20.8987 8.59556 20.8092 8.19718C20.7207 7.80394 20.5782 7.46586 20.3501 7.2317L20.0994 7.47595ZM20.5905 9.65999H20.2405C20.2405 9.95902 20.205 10.1347 20.1649 10.2234C20.1468 10.2634 20.1355 10.2682 20.1429 10.2627C20.1542 10.2544 20.1661 10.2534 20.164 10.2534V10.6034V10.9534C20.304 10.9534 20.4403 10.9131 20.5583 10.8261C20.6723 10.7421 20.7498 10.6289 20.8028 10.5117C20.9049 10.2859 20.9405 9.9899 20.9405 9.65999H20.5905ZM20.164 10.6034V10.2534C20.2306 10.2534 20.2785 10.2736 20.2824 10.2751C20.296 10.2805 20.3043 10.285 20.3047 10.2852C20.306 10.2859 20.3002 10.2828 20.2842 10.2724C20.2536 10.2523 20.2058 10.2189 20.1385 10.1694C20.0052 10.0715 19.8104 9.92233 19.5527 9.72047L19.3369 9.996L19.1211 10.2715C19.3803 10.4746 19.5819 10.6291 19.7242 10.7336C19.7948 10.7855 19.8547 10.8279 19.9016 10.8585C19.9244 10.8734 19.9498 10.8893 19.9749 10.9026C19.9871 10.9092 20.0054 10.9184 20.0271 10.9269C20.039 10.9316 20.0931 10.9534 20.164 10.9534V10.6034ZM19.3369 9.996L19.5555 9.7227C19.0278 9.3005 18.5577 8.99655 18.15 8.83155L18.0187 9.15598L17.8874 9.48041C18.2035 9.60835 18.6121 9.86441 19.1183 10.2693L19.3369 9.996ZM18.0187 9.15598L18.1471 8.83037C17.1979 8.45618 16.0398 8.27612 14.6845 8.27612V8.62613V8.97613C15.9828 8.97613 17.0475 9.14931 17.8904 9.48159L18.0187 9.15598ZM14.6845 8.62613V8.27612C13.77 8.27612 13.0487 8.57871 12.6293 9.25607L12.9269 9.4403L13.2245 9.62452C13.4772 9.21632 13.9276 8.97613 14.6845 8.97613V8.62613ZM12.9269 9.4403L12.6293 9.25607C12.4252 9.58583 12.2899 10.0446 12.2031 10.6011C12.1153 11.1637 12.0729 11.8552 12.0729 12.6711H12.4229H12.7729C12.7729 11.876 12.8145 11.2234 12.8947 10.709C12.9759 10.1887 13.0926 9.83755 13.2245 9.62452L12.9269 9.4403ZM12.4229 12.6711H12.0729C12.0729 13.5909 12.2337 14.3339 12.6665 14.7667L12.914 14.5192L13.1615 14.2717C12.9395 14.0497 12.7729 13.5607 12.7729 12.6711H12.4229ZM12.914 14.5192L12.6665 14.7667C13.0819 15.182 13.6727 15.3603 14.3743 15.3603V15.0103V14.6603C13.7837 14.6603 13.4009 14.5111 13.1615 14.2717L12.914 14.5192ZM14.3743 15.0103V15.3603C15.0974 15.3603 15.7845 15.1595 16.4302 14.7664L16.2482 14.4675L16.0662 14.1685C15.523 14.4992 14.9609 14.6603 14.3743 14.6603V15.0103ZM16.2482 14.4675L16.4283 14.7676C16.7292 14.5871 16.9568 14.4531 17.1124 14.3648C17.1907 14.3203 17.2475 14.2893 17.285 14.2701C17.3042 14.2603 17.3137 14.2559 17.3162 14.2549C17.3177 14.2542 17.3123 14.2567 17.3024 14.2599C17.3022 14.2599 17.261 14.2747 17.2046 14.2747V13.9247V13.5747C17.1438 13.5747 17.0961 13.5909 17.0872 13.5938C17.0685 13.5998 17.0521 13.6065 17.0404 13.6115C17.0165 13.6217 16.9907 13.6344 16.9658 13.6471C16.915 13.6732 16.8479 13.71 16.7669 13.756C16.6037 13.8486 16.3704 13.986 16.0682 14.1674L16.2482 14.4675ZM17.2046 13.9247V14.2747C17.3091 14.2747 17.3752 14.2981 17.4201 14.3275C17.4651 14.3569 17.5136 14.4085 17.5563 14.5054L17.8766 14.3641L18.1968 14.2228C18.1103 14.0267 17.9821 13.8586 17.8032 13.7416C17.6241 13.6245 17.4188 13.5747 17.2046 13.5747V13.9247ZM17.8766 14.3641L17.5599 14.5131C17.663 14.7323 17.7333 15.1402 17.7333 15.7857H18.0833H18.4333C18.4333 15.1215 18.3658 14.5817 18.1933 14.2151L17.8766 14.3641ZM18.0833 15.7857H17.7333C17.7333 16.4915 17.6433 16.9688 17.4989 17.2575C17.4292 17.3969 17.3528 17.4804 17.2786 17.5299C17.2066 17.5779 17.1175 17.6068 16.9978 17.6068V17.9568V18.3068C17.24 18.3068 17.4675 18.2452 17.6669 18.1123C17.8641 17.9808 18.0138 17.793 18.125 17.5705C18.3425 17.1355 18.4333 16.5272 18.4333 15.7857H18.0833ZM16.9978 17.9568V17.6068C17.0191 17.6068 17.0158 17.6105 16.9706 17.597C16.9316 17.5855 16.877 17.5659 16.8045 17.5361C16.6598 17.4767 16.4636 17.3845 16.213 17.2571L16.0544 17.5691L15.8957 17.8811C16.1535 18.0121 16.3687 18.1138 16.5384 18.1836C16.6232 18.2184 16.7015 18.2473 16.7713 18.2681C16.8349 18.2869 16.9161 18.3068 16.9978 18.3068V17.9568ZM16.0544 17.5691L16.2194 17.2604C15.9609 17.1222 15.7287 17.0141 15.5249 16.9398C15.3257 16.8672 15.1316 16.8185 14.9559 16.8185V17.1685V17.5185C15.0128 17.5185 15.1181 17.5365 15.2851 17.5974C15.4474 17.6567 15.6482 17.7488 15.8894 17.8778L16.0544 17.5691ZM14.9559 17.1685V16.8185C14.0913 16.8185 13.3766 16.9882 12.8675 17.383L13.082 17.6595L13.2965 17.9361C13.6317 17.6761 14.1663 17.5185 14.9559 17.5185V17.1685ZM13.082 17.6595L12.8683 17.3823C12.3169 17.8074 12.1117 18.6093 12.1117 19.611H12.4617H12.8117C12.8117 18.6482 13.02 18.1492 13.2957 17.9367L13.082 17.6595ZM12.4617 19.611H12.1117C12.1117 20.6123 12.1994 21.4937 12.3797 22.2509L12.7202 22.1698L13.0606 22.0887C12.8963 21.3985 12.8117 20.574 12.8117 19.611H12.4617ZM12.7202 22.1698L12.3797 22.2509C12.4667 22.6162 12.546 22.9186 12.6177 23.1562C12.6873 23.3868 12.7561 23.5783 12.8264 23.7073L13.1337 23.5397L13.441 23.3721C13.4079 23.3114 13.3561 23.1799 13.2878 22.9539C13.2217 22.7348 13.146 22.4471 13.0606 22.0887L12.7202 22.1698ZM13.1337 23.5397L12.8264 23.7073C12.9354 23.9071 13.0616 24.1142 13.2043 24.3283L13.4956 24.1341L13.7868 23.94C13.6538 23.7406 13.5387 23.5513 13.441 23.3721L13.1337 23.5397ZM13.4956 24.1341L13.2099 24.3364C13.2778 24.4322 13.3217 24.5044 13.3473 24.5556C13.3599 24.5809 13.3656 24.5961 13.3677 24.6027C13.3702 24.6107 13.3653 24.599 13.3653 24.5735H13.7153H14.0653C14.0653 24.4465 14.0162 24.3282 13.9734 24.2425C13.9257 24.1472 13.8598 24.0428 13.7812 23.9318L13.4956 24.1341ZM13.7153 24.5735H13.3653C13.3653 24.5292 13.392 24.5057 13.3839 24.5124C13.3654 24.5276 13.3098 24.5608 13.1866 24.5946C12.9422 24.6616 12.5442 24.7017 11.9706 24.7017V25.0517V25.4017C12.5601 25.4017 13.0344 25.3621 13.3716 25.2697C13.5392 25.2238 13.7017 25.1573 13.8285 25.0531C13.9658 24.9402 14.0653 24.7773 14.0653 24.5735H13.7153ZM11.9706 25.0517V24.7017H11.5183V25.0517V25.4017H11.9706V25.0517ZM11.5183 25.0517L11.5283 24.7018L11.076 24.6889L11.066 25.0388L11.056 25.3886L11.5083 25.4016L11.5183 25.0517ZM11.066 25.0388V24.6888C9.89553 24.6888 9.04183 24.6293 8.48904 24.518C8.20964 24.4617 8.03537 24.3974 7.93944 24.3394C7.84573 24.2828 7.88789 24.2738 7.88789 24.328H7.53789H7.18789C7.18789 24.6191 7.37706 24.8174 7.57736 24.9385C7.77543 25.0582 8.04217 25.142 8.35079 25.2042C8.97401 25.3297 9.88436 25.3888 11.066 25.3888V25.0388ZM7.53789 24.328H7.88789C7.88789 24.3216 7.89102 24.2726 7.97517 24.1742C8.05843 24.0768 8.19847 23.9582 8.41181 23.8213L8.22283 23.5267L8.03385 23.2321C7.79056 23.3882 7.58814 23.5496 7.44308 23.7193C7.29892 23.888 7.18789 24.0931 7.18789 24.328H7.53789ZM8.22283 23.5267L8.40931 23.8229C8.90505 23.5108 9.27 23.1435 9.40952 22.7017L9.07577 22.5963L8.74202 22.4909C8.67477 22.7038 8.47109 22.9568 8.03635 23.2306L8.22283 23.5267ZM9.07577 22.5963L9.40952 22.7017C9.47512 22.4939 9.51542 22.1765 9.54134 21.779C9.56788 21.3721 9.58085 20.8511 9.58085 20.2184H9.23085H8.88085C8.88085 20.8435 8.86798 21.3478 8.84282 21.7335C8.81705 22.1286 8.7798 22.3712 8.74202 22.4909L9.07577 22.5963ZM9.23085 20.2184H9.58085V17.6337H9.23085H8.88085V20.2184H9.23085ZM9.23085 17.6337L9.58071 17.6435L9.61948 16.2607L9.26962 16.2509L8.91976 16.2411L8.88099 17.6239L9.23085 17.6337ZM9.26962 16.2509L9.61961 16.2541L9.63253 14.8584L9.28254 14.8552L8.93256 14.8519L8.91964 16.2477L9.26962 16.2509ZM9.28254 14.8552H9.63254V13.4465H9.28254H8.93254V14.8552H9.28254ZM9.28254 13.4465H9.63254C9.63254 12.4435 9.61311 11.6194 9.57373 10.9762C9.53487 10.3414 9.47536 9.85714 9.38605 9.54949L9.04992 9.64707L8.7138 9.74465C8.77956 9.97117 8.83637 10.3872 8.87504 11.0189C8.9132 11.6422 8.93254 12.4507 8.93254 13.4465H9.28254ZM9.04992 9.64707L9.38646 9.55092C9.22382 8.98168 8.98369 8.5218 8.61924 8.26316L8.41668 8.54859L8.21412 8.83401C8.38384 8.95446 8.56587 9.2269 8.71339 9.74322L9.04992 9.64707ZM8.41668 8.54859L8.62187 8.26505C8.29676 8.02976 8.06032 7.84788 7.90754 7.7172C7.83014 7.65101 7.7824 7.60487 7.75681 7.57624C7.74365 7.56153 7.74368 7.55952 7.74891 7.56813C7.75178 7.57284 7.75921 7.58563 7.76652 7.60533C7.77346 7.62407 7.78451 7.66028 7.78451 7.70857H7.43451H7.08451C7.08451 7.81731 7.13085 7.89899 7.15079 7.93179C7.17649 7.97406 7.20721 8.01176 7.23498 8.04282C7.29123 8.10574 7.36626 8.17537 7.45256 8.24918C7.62717 8.39851 7.88182 8.59355 8.21149 8.83213L8.41668 8.54859ZM7.43451 7.70857H7.78451C7.78451 7.63818 7.80309 7.60672 7.82303 7.58532C7.84951 7.5569 7.91132 7.51314 8.0473 7.47997L7.96436 7.13994L7.88143 6.79991C7.66417 6.8529 7.46105 6.94698 7.31091 7.10811C7.15423 7.27625 7.08451 7.48603 7.08451 7.70857H7.43451ZM7.96436 7.13994L8.04306 7.48098C8.11645 7.46404 8.31968 7.44474 8.6908 7.43157C9.04881 7.41886 9.53414 7.4124 10.1484 7.4124V7.0624V6.7124C9.53066 6.7124 9.03596 6.71887 8.66596 6.73201C8.30906 6.74468 8.03628 6.76414 7.88566 6.7989L7.96436 7.13994ZM10.1484 7.0624L10.1554 7.41233L13.3991 7.34772L13.3922 6.99778L13.3852 6.64785L10.1414 6.71247L10.1484 7.0624ZM13.3922 6.99778L13.4018 7.34765L14.8104 7.30888L14.8008 6.95901L14.7912 6.60915L13.3825 6.64792L13.3922 6.99778ZM14.8008 6.95901V7.30901H18.5744V6.95901V6.60901H14.8008V6.95901Z" fill="#0D0D0D" mask="url(#path-3-outside-2_4_22)"/>
</svg>
