<svg preserveAspectRatio="none" width="100%" height="100%" overflow="visible" style="display: block;" viewBox="0 0 20 20" fill="none" xmlns="http://www.w3.org/2000/svg">
<g id="App_Store_(iOS) 1" clip-path="url(#clip0_0_27)">
<path id="Vector" d="M15.96 0H4.04C1.8075 0 0 1.8075 0 4.04V15.9625C0 18.1925 1.8075 20 4.04 20H15.9625C18.1925 20 20.0025 18.1925 20.0025 15.96V4.04C20 1.8075 18.1925 0 15.96 0Z" fill="url(#paint0_linear_0_27)"/>
<path id="Vector_2" d="M9.915 4.595L10.32 3.895C10.57 3.4575 11.1275 3.31 11.565 3.56C12.0025 3.81 12.15 4.3675 11.9 4.805L7.9975 11.56H10.82C11.735 11.56 12.2475 12.635 11.85 13.38H3.575C3.07 13.38 2.665 12.975 2.665 12.47C2.665 11.965 3.07 11.56 3.575 11.56H5.895L8.865 6.4125L7.9375 4.8025C7.6875 4.365 7.835 3.8125 8.2725 3.5575C8.71 3.3075 9.2625 3.455 9.5175 3.8925L9.915 4.595ZM6.405 14.3175L5.53 15.835C5.28 16.2725 4.7225 16.42 4.285 16.17C3.8475 15.92 3.7 15.3625 3.95 14.925L4.6 13.8C5.335 13.5725 5.9325 13.7475 6.405 14.3175ZM13.94 11.565H16.3075C16.8125 11.565 17.2175 11.97 17.2175 12.475C17.2175 12.98 16.8125 13.385 16.3075 13.385H14.9925L15.88 14.925C16.13 15.3625 15.9825 15.915 15.545 16.17C15.1075 16.42 14.555 16.2725 14.3 15.835C12.805 13.2425 11.6825 11.3025 10.9375 10.01C10.175 8.695 10.72 7.375 11.2575 6.9275C11.855 7.9525 12.7475 9.5 13.94 11.565Z" fill="var(--fill-0, white)"/>
</g>
<defs>
<linearGradient id="paint0_linear_0_27" x1="10.0012" y1="0" x2="10.0012" y2="20" gradientUnits="userSpaceOnUse">
<stop stop-color="#18BFFB"/>
<stop offset="1" stop-color="#2072F3"/>
</linearGradient>
<clipPath id="clip0_0_27">
<rect width="20" height="20" fill="white"/>
</clipPath>
</defs>
</svg>
